<?xml version="1.0" standalone="no"?>
<!DOCTYPE svg PUBLIC "-//W3C//DTD SVG 20010904//EN"
 "http://www.w3.org/TR/2001/REC-SVG-20010904/DTD/svg10.dtd">
<svg version="1.0" xmlns="http://www.w3.org/2000/svg"
 width="320.000000pt" height="320.000000pt" viewBox="0 0 320.000000 320.000000"
 preserveAspectRatio="xMidYMid meet">
<metadata>
Created by potrace 1.11, written by Peter Selinger 2001-2013
</metadata>
<g transform="translate(0.000000,320.000000) scale(0.100000,-0.100000)"
fill="#000000" stroke="none">
<path d="M2476 2760 c-121 -22 -224 -41 -230 -43 -6 -3 -29 -44 -50 -93 -43
-97 -86 -191 -142 -311 -69 -151 -163 -368 -169 -395 -4 -15 -13 -32 -19 -37
-10 -8 -16 9 -26 77 -8 48 -15 92 -16 97 -1 6 -5 27 -9 49 -4 21 -9 48 -11 60
-6 30 -32 184 -40 230 -3 21 -7 48 -10 60 -34 178 -33 177 -43 172 -6 -4 -357
-66 -374 -66 -2 0 6 -60 19 -132 13 -73 26 -151 29 -173 3 -22 8 -47 10 -55 2
-8 7 -31 10 -50 17 -104 26 -160 35 -200 5 -25 12 -61 15 -80 2 -19 7 -46 9
-60 3 -14 15 -79 26 -145 11 -66 23 -131 25 -145 3 -14 12 -65 20 -115 9 -49
20 -110 25 -135 9 -41 13 -66 26 -155 3 -16 9 -50 14 -75 11 -58 22 -117 26
-155 8 -62 3 -60 102 -40 13 2 81 14 150 25 70 12 132 23 138 25 11 3 8 30
-19 175 -3 14 -19 107 -37 207 l-31 182 36 68 c21 37 47 83 58 102 l20 34 26
-29 c14 -16 42 -50 63 -74 20 -25 84 -103 143 -175 59 -71 122 -148 140 -170
19 -22 66 -80 106 -128 l73 -88 45 6 c24 3 47 8 50 9 3 2 29 7 56 10 28 4 59
9 70 11 11 3 33 7 48 9 16 3 63 11 105 17 42 7 79 14 81 15 4 3 -24 38 -109
134 -31 36 -126 144 -211 240 -84 96 -165 189 -180 205 -204 229 -268 307
-262 323 4 9 16 35 28 57 68 127 163 306 260 490 32 61 78 147 102 193 28 51
40 82 31 81 -7 0 -112 -18 -232 -39z"/>
<path d="M940 2493 c-36 -7 -78 -14 -95 -17 -80 -12 -211 -38 -217 -44 -4 -4
-2 -29 3 -57 5 -27 12 -65 15 -84 3 -18 8 -43 10 -55 5 -24 7 -36 28 -161 9
-49 18 -100 20 -111 2 -12 7 -37 10 -55 3 -19 15 -88 27 -154 12 -66 23 -129
24 -141 2 -11 12 -70 24 -130 48 -256 46 -358 -10 -433 -47 -64 -178 -105
-314 -100 l-60 3 3 -164 c2 -91 5 -166 7 -169 10 -9 2505 -1 2505 8 0 6 -191
9 -635 10 -137 1 -329 1 -425 1 -96 1 -389 2 -650 2 -261 1 -466 3 -455 5 54
11 174 57 224 85 31 18 79 55 106 83 48 49 108 153 119 205 19 95 22 124 20
195 -2 94 -6 131 -41 325 -14 80 -27 154 -28 165 -2 11 -8 43 -14 70 -5 28
-12 70 -16 95 -3 25 -10 63 -15 85 -5 22 -12 65 -15 95 -4 30 -8 57 -10 60 -2
3 -18 89 -35 190 -18 102 -35 190 -39 195 -4 8 -26 7 -71 -2z"/>
</g>
</svg>
